Coordinates
version=1
nRows=17
nColumns=36
inDegrees=yes

Units are S.I. units (second, meters, Newtons, ...)
If the header above contains a line with 'inDegrees', this indicates whether rotational values are in degrees (yes) or radians (no).

endheader
time	pelvis_tilt	pelvis_list	pelvis_rotation	pelvis_tx	pelvis_ty	pelvis_tz	hip_flexion_r	hip_adduction_r	hip_rotation_r	knee_angle_r	knee_angle_r_beta	ankle_angle_r	subtalar_angle_r	mtp_angle_r	hip_flexion_l	hip_adduction_l	hip_rotation_l	knee_angle_l	knee_angle_l_beta	ankle_angle_l	subtalar_angle_l	mtp_angle_l	lumbar_extension	lumbar_bending	lumbar_rotation	arm_flex_r	arm_add_r	arm_rot_r	elbow_flex_r	pro_sup_r	arm_flex_l	arm_add_l	arm_rot_l	elbow_flex_l	pro_sup_l
      2.43333330	     -2.96451818	     -3.00743865	     -2.21284011	     -0.32948867	      1.20458707	     -0.09513232	     -2.25730372	      1.99400458	     -1.57998577	      1.97901107	      0.03454026	     10.84256142	    -10.28259522	     -7.49999987	     -2.16919966	     -5.55915420	      1.92176241	      0.28136219	      0.00491070	     15.46573802	      4.77050875	     -7.49999987	     -1.70012869	      3.92808832	     -0.22092066	      3.96176020	     -8.01436812	     22.09444303	     27.93166554	     70.41732356	      0.62579112	     -6.67701987	     19.86768011	     27.90529657	     68.62899804
      2.45000000	     -2.95643914	     -3.01613497	     -2.17011036	     -0.32946960	      1.20761089	     -0.09525971	     -2.21950802	      1.99505396	     -1.66061286	      2.17371327	      0.03793845	     10.74995749	    -10.44616913	     -7.49999987	     -2.13933545	     -5.54871060	      2.16953270	      0.28335451	      0.00494547	     15.29030344	      4.24402349	     -7.49999987	     -1.76466954	      3.95161132	     -0.23234403	      3.96293256	     -8.05333437	     22.18669821	     27.83648521	     70.69319112	      0.63238988	     -6.68193884	     20.00359050	     27.92307717	     68.82698947
      2.46666670	     -2.99617746	     -2.99945939	     -2.21134241	     -0.32934329	      1.20744261	     -0.09518658	     -2.15471963	      1.97663377	     -1.60884113	      2.25449256	      0.03934832	     10.62467363	    -10.71432207	     -7.49999987	     -2.10270517	     -5.52155666	      2.02301207	      0.28688392	      0.00500707	     15.29915443	      4.36479881	     -7.49999987	     -1.71397812	      3.91970311	     -0.20657529	      3.89345498	     -8.05828361	     22.14669643	     27.97796207	     70.63974631	      0.57424385	     -6.71199375	     20.00119752	     27.99393600	     68.73931633
      2.48333330	     -3.04435688	     -3.02354043	     -2.22781210	     -0.32936220	      1.20757352	     -0.09518423	     -1.99355149	      1.97804880	     -1.68057793	      2.40814399	      0.04203004	     10.55333582	    -10.77736529	     -7.49999987	     -2.03810017	     -5.51872087	      1.89650641	      0.28991494	      0.00505997	     15.28131672	      4.38138694	     -7.49999987	     -1.66653457	      3.96345524	     -0.17823957	      3.81098060	     -8.03633620	     22.05919912	     27.89248781	     70.61482101	      0.57134956	     -6.69012008	     20.03051700	     27.91327800	     68.68785632
      2.50000000	     -3.03366913	     -3.01228968	     -2.18550560	     -0.32926689	      1.20765104	     -0.09522965	     -1.97842230	      1.95296931	     -1.76667024	      2.38733949	      0.04166693	     10.54596664	    -10.66721486	     -7.49999987	     -2.00913771	     -5.47433940	      1.93738663	      0.29044038	      0.00506914	     15.17362830	      4.24582366	     -7.49999987	     -1.69358136	      3.96324834	     -0.20788224	      3.71403667	     -8.02327722	     21.92786941	     27.93033333	     70.42115738	      0.57423552	     -6.70360098	     20.05904834	     27.96362308	     68.50170845
      2.51666670	     -3.04362217	     -3.02990608	     -2.17183392	     -0.32932098	      1.20780764	     -0.09521830	     -1.85341475	      1.95118689	     -1.80700431	      2.52256703	      0.04402710	     10.53500766	    -10.63059011	     -7.49999987	     -1.98296500	     -5.48092137	      1.91198552	      0.28996824	      0.00506090	     15.09648551	      4.17306147	     -7.49999987	     -1.64884237	      3.99602178	     -0.15511118	      3.46219714	     -7.84742187	     19.80280859	     27.88798883	     77.79607708	      0.61623665	     -6.68303423	     19.50267611	     27.78725507	     74.19683157
      2.53333330	     -2.96334677	     -3.03404329	     -2.12001868	     -0.32936092	      1.20783481	     -0.09521497	     -1.87619737	      1.95192947	     -1.85841372	      2.60934375	      0.04554164	     10.50973116	    -10.69050860	     -7.49999987	     -2.03968979	     -5.46803645	      1.77508667	      0.29150788	      0.00508777	     15.15148476	      4.36300710	     -7.49999987	     -1.74323429	      3.99670775	     -0.22928674	      3.40854538	     -7.83620610	     19.75350277	     27.99554332	     77.12956990	      0.61312056	     -6.67970349	     19.44037342	     27.83448324	     73.65921734
      2.55000000	     -2.94919130	     -3.03183611	     -2.11534450	     -0.32933135	      1.20807171	     -0.09522455	     -1.83207093	      1.95662690	     -1.86261782	      2.75528821	      0.04808885	     10.55389109	    -10.69026258	     -7.49999987	     -2.03374032	     -5.45521133	      1.86981825	      0.29862117	      0.00521192	     15.00075708	      4.06495522	     -7.49999987	     -1.78993202	      3.99173859	     -0.21957857	      3.48113731	     -7.90987661	     20.25417518	     27.92698623	     76.38977903	      0.64276856	     -6.74520970	     19.75239291	     27.82050503	     73.07225732
      2.56666670	     -2.82903325	     -3.02974394	     -2.04888886	     -0.32936037	      1.21081033	     -0.09529665	     -1.92985131	      1.96239072	     -2.06545717	      2.85615273	      0.04984927	     10.63996076	    -10.41106637	     -7.49999987	     -2.14641731	     -5.44424009	      1.78652805	      0.30276842	      0.00528431	     14.97136399	      4.22082016	     -7.49999987	     -1.99504200	      3.98438170	     -0.28704910	      3.42982232	     -7.86723960	     20.09189736	     28.07377675	     75.01111470	      0.65136300	     -6.68786483	     19.55890560	     27.83547703	     71.94586046
      2.58333330	     -2.86045577	     -2.98862333	     -2.14274328	     -0.32940984	      1.21079226	     -0.09512435	     -1.84535349	      1.92827880	     -1.82259387	      2.96622527	      0.05177040	     10.53075052	    -10.72369288	     -7.49999987	     -2.11278900	     -5.39799437	      1.71774173	      0.30844634	      0.00538340	     14.83187836	      4.03371005	     -7.49999987	     -1.94987132	      3.92276047	     -0.29925937	      3.51290127	     -7.88845876	     20.69774173	     27.93217567	     75.32977284	      0.67775377	     -6.79959227	     20.07288431	     27.76728685	     72.06241483
      2.60000000	     -2.76136958	     -2.99450081	     -2.19750760	     -0.32936964	      1.21073660	     -0.09520468	     -1.90306010	      1.91401480	     -1.86534567	      3.08840918	      0.05390291	     10.54687071	    -10.69139288	     -7.49999987	     -2.18736683	     -5.36826931	      1.70112984	      0.31134301	      0.00543396	     14.80618315	      3.99822433	     -7.49999987	     -2.16680873	      3.97939289	     -0.26802290	      3.48992541	     -7.91589369	     20.45464189	     28.08461994	     74.61247218	      0.65267194	     -6.71062267	     19.85822805	     27.85215179	     71.44963904
      2.61666670	     -2.76469947	     -2.96048149	     -2.20684687	     -0.32934858	      1.20805949	     -0.09519738	     -1.84597808	      1.86799726	     -1.87178096	      3.17588722	      0.05542969	     10.53472458	    -10.85377731	     -7.49999987	     -2.13298724	     -5.29674802	      1.70022893	      0.31271312	      0.00545787	     14.84960701	      4.05945070	     -7.49999987	     -2.27730039	      3.98060080	     -0.31356945	      3.47264554	     -7.89681616	     20.32742584	     28.21326993	     73.06972781	      0.65360845	     -6.65847570	     19.63478110	     27.84601083	     70.17760722
      2.63333330	     -2.78384557	     -2.95779626	     -2.25433611	     -0.32940390	      1.20790638	     -0.09519983	     -1.76236647	      1.84522678	     -1.95398900	      3.20541819	      0.05594510	     10.45727622	    -10.89607569	     -7.49999987	     -2.08432894	     -5.28152352	      1.72397415	      0.30843689	      0.00538324	     14.87700495	      4.04773758	     -7.49999987	     -2.37740062	      4.02565922	     -0.34320823	      3.45046323	     -7.97487019	     20.41201968	     28.46000719	     72.88204257	      0.58817772	     -6.69902037	     19.73436064	     28.07403378	     69.99993755
      2.65000000	     -2.80370954	     -2.97762219	     -2.28556724	     -0.32943098	      1.20814956	     -0.09521521	     -1.71366758	      1.84103492	     -1.95359455	      3.24152455	      0.05657528	     10.42967261	    -11.03528198	     -7.49999987	     -2.02765283	     -5.28571337	      1.83929184	      0.30844627	      0.00538340	     14.84731726	      3.87621714	     -7.49999987	     -2.48876398	      4.08926206	     -0.30316447	      3.54913128	     -8.02485343	     20.48795490	     28.46746753	     72.72410716	      0.62633698	     -6.69624249	     19.76667049	     28.09129429	     69.84586722
      2.66666670	     -2.84989155	     -2.97267822	     -2.34072475	     -0.32938601	      1.20807662	     -0.09512232	     -1.59313997	      1.81974560	     -2.00614093	      3.26919021	      0.05705813	     10.37598465	    -11.09553949	     -7.49999987	     -1.97042501	     -5.27867555	      1.74068012	      0.30579954	      0.00533721	     14.97547897	      4.08148951	     -7.49999987	     -2.52228046	      4.12093580	     -0.24281935	      3.61369841	     -8.05704629	     20.66495187	     28.42516739	     72.64378367	      0.64289384	     -6.68842628	     19.84286086	     28.07121148	     69.74310269
      2.68333330	     -2.86251155	     -3.00970321	     -2.32228072	     -0.32945246	      1.20815328	     -0.09515867	     -1.59757898	      1.85001233	     -1.95268449	      3.23479458	      0.05645782	     10.13952621	    -11.49981074	     -7.49999987	     -1.95919261	     -5.32435053	      1.89726784	      0.31069531	      0.00542266	     15.00542696	      3.99524175	     -7.49999987	     -2.55515038	      4.19971435	     -0.19985612	      3.58942945	     -8.14619249	     20.78280339	     28.55702022	     72.48421872	      0.60567384	     -6.68317030	     19.86056318	     28.21717195	     69.58674799
      2.70000000	     -2.81625659	     -3.03770079	     -2.38912697	     -0.32943623	      1.20815991	     -0.09515904	     -1.60348852	      1.85447615	     -1.98283459	      3.32177710	      0.05797595	     10.15837361	    -11.53642855	     -7.49999987	     -2.01987494	     -5.34216403	      1.95995373	      0.31013313	      0.00541284	     15.01678863	      3.84454396	     -7.49999987	     -2.68860578	      4.28073884	     -0.17085548	      3.67306434	     -8.19741420	     20.88754991	     28.58231463	     72.15034091	      0.59968358	     -6.67202428	     19.81071156	     28.28460029	     69.28369332
